<?xml version="1.0" encoding="UTF-8"?>
<svg xmlns="http://www.w3.org/2000/svg" width="744" height="192" viewBox="0 0 744 192" fill="none">
  <path d="M95.8 191.5C148.5 191.4 191.1 148.7 191.1 96C191.1 43.3 148.4 0.5 95.6001 0.5C44.9001 0.5 3.00005 40.3 0.300049 91V191.4H47.6V178.8C62 186.9 78.2 191.5 95.8 191.5ZM95.8 18.1C129.6 18.1 158.4 40.2 169.2 70.3H21.9001C32.7001 40.2 61.6 18.1 95.8 18.1ZM112 116.3C112 121.7 108.4 126.7 103.4 128.9L112 145.6H84.5L92.6001 128.9C87.4001 126.7 84 121.7 84 116C84 108.3 90.3 102 98 102C105.7 102 112 108.3 112 116C112 116.1 112 116.2 112 116.3Z" fill="#083E9E"></path>
  <path d="M525.5 53.4H543.8L565 109.3L586.2 53.4H604.7L572.9 137.5H557.3L525.5 53.4ZM656.2 113.8H617C617.2 117.3 618.4 120.2 620.5 122.4C622.6 124.6 625.1 125.7 627.9 125.7C632.9 125.7 636.9 123.4 639.7 118.9L654.7 123.9C649.1 133.7 640.4 138.6 628.6 138.6C619.9 138.6 613 136 607.9 130.7C602.8 125.4 600.2 118.4 600.2 109.5C600.2 101.5 602.9 94.8 608.3 89.4C613.7 84 620.3 81.3 628.2 81.3C636.1 81.3 642.8 84.1 648.1 89.8C653.4 95.5 656.1 102.6 656.1 111.2L656.2 113.8ZM617 102.8H639.3C637.7 95.9 634.2 92.4 628.7 92.4C625.5 92.4 622.9 93.3 620.8 95.1C618.7 97 617.4 99.5 617 102.8ZM706.1 90.1L695 96.9C691.8 93.7 688.8 92 686 92C684.6 92 683.4 92.4 682.5 93.1C681.5 93.9 681 94.8 681 95.9C681 97.7 681.6 99 682.7 99.8C683.9 100.6 686.9 101.9 691.8 103.6C696.7 105.3 700.6 107.5 703.4 110.2C706.2 112.8 707.7 116.5 707.7 121.2C707.7 125.9 705.6 130 701.3 133.4C697 136.8 691.9 138.5 685.9 138.5C681.8 138.5 677.8 137.4 673.7 135.1C669.7 132.8 666.2 129.4 663.4 124.7L676.6 118.7C679.6 123.9 682.7 126.4 685.9 126.4C687.3 126.4 688.7 125.9 689.8 125C691 124.1 691.5 123 691.5 121.8C691.5 120.3 690.8 119.1 689.5 118.3C688.2 117.5 687.2 117.1 686.5 117.1C686.2 116.8 684.7 116.2 681.9 115.3C670.9 111.7 665.4 105.9 665.4 97.8C665.4 92.9 667.4 89 671.3 85.9C675.3 82.8 680.4 81.3 686.8 81.3C694 81.3 700.4 84.3 706.1 90.1ZM719.4 63.5H735.8V82.4H743.7V97.5H735.8V137.5H719.4V97.5H713.1V82.4H719.4V63.5Z" fill="#083E9E"></path>
  <path d="M414 75.7C424.5 74.1 432 80.6 433.3 90.1C434.7 100.6 428.9 110.2 420.6 111.6C397 115.6 392.3 79 414 75.7ZM433.2 116.1C435.9 136.7 426.1 145.7 410.6 140.7C403.1 138.3 405.6 135.7 401.6 132.4H386.6C390.1 159.6 429.1 162.1 442.9 145.8C451.1 136.1 449.4 122.1 449.4 107.4C449.4 92.3 449.5 77.2 449.4 62.2L433.7 62L433.3 70.4C430.9 68.2 430.5 67 427 65.1C406.2 53.2 383.4 67.8 383.6 93.4C383.8 116.9 402.2 129.3 419.2 125.2C427.4 123.2 428.6 119.8 433.2 116.1Z" fill="#083E9E"></path>
  <path d="M339.1 75.6C362.1 72.5 363.9 108.7 344.6 111.6C333.3 113.3 326.2 105.9 324.9 96.2C323.2 84.5 329.1 76.9 339.1 75.6ZM357.8 116.1C358 128.3 358.6 136.8 348.9 140.8C344.4 142.7 339 142.2 334.7 140.7C326.4 137.9 329.1 133.4 325.6 132.6H311C313.7 156.4 349.3 165.2 367.1 145.6C375 136.9 373.8 120.6 373.8 106.9C373.8 99.8 374.6 66.3 373.3 62.2H358.3L357.8 70.8C339.6 50.5 308 63 308.1 93.4C308.2 108.6 314.8 117.4 324.5 122.7C330 125.7 337 126.8 343.9 125.1C351.3 123.4 353.6 119.2 357.8 116.1Z" fill="#083E9E"></path>
  <path d="M234.2 75.7C256.6 67.9 263.4 105.4 243.5 111.3C221.6 117.8 213.4 82.9 234.2 75.7ZM222.1 62.6H206.6L206.5 154.6H222V116.6C224 118 225.2 120 228 121.9C245.8 133.6 271.6 120.7 271.7 93.5C271.8 71.6 254.8 57 235.7 61.6C228.2 63.4 226.3 66.7 222.2 70.7L222.1 62.6Z" fill="#083E9E"></path>
  <path d="M467.8 154.6H484.7C487 151.4 523.1 63.6 523.1 62H506.9C501.9 71.9 493.9 99 490.1 105C485.5 95.8 477.7 67.9 473.9 61.9H456.9C457 64.6 476.7 110.4 480.6 119.9C482.5 124.6 480.1 126.7 478 131.5C474.6 139.6 471.3 146.9 467.8 154.6Z" fill="#083E9E"></path>
  <path d="M282.7 125.1H297.7V62.6L282.6 62.5L282.7 125.1Z" fill="#083E9E"></path>
  <path d="M288 36C276.1 38.7 279.6 57.4 292.7 54.2C296.6 53.3 301.1 48.7 299.7 43.2C298.7 38.9 293.8 34.6 288 36Z" fill="#083E9E"></path>
  <path d="M222.1 154.6H206.6L206.7 62.6H222.2C220 61.2 208.7 61.8 206.3 62.1L205.9 155.1L222.1 154.6Z" fill="#8F8F8F"></path>
  <path d="M282.939 125.428L282.839 62.828H297.939C297.739 62.728 297.539 62.328 297.439 62.528L294.939 62.028C293.739 61.928 291.939 62.128 290.639 62.128C287.939 62.128 285.139 61.928 282.539 62.428C281.739 66.028 282.039 110.828 282.139 122.028C282.139 125.428 282.339 124.728 282.939 125.428Z" fill="#929292"></path>
</svg>
