<?xml version="1.0" encoding="UTF-8"?>
<svg xmlns="http://www.w3.org/2000/svg" width="210" height="55" viewBox="0 0 210 55" fill="none">
  <path d="M7.848 20.264C5.576 20.264 3.856 19.768 2.688 18.776C1.52 17.784 0.88 16.4 0.768 14.624H4.488C4.584 15.504 4.872 16.192 5.352 16.688C5.848 17.184 6.68 17.432 7.848 17.432C8.696 17.432 9.376 17.224 9.888 16.808C10.416 16.376 10.68 15.824 10.68 15.152C10.68 14.464 10.456 13.968 10.008 13.664C9.56 13.36 8.704 13.112 7.44 12.92C5.2 12.632 3.608 12.104 2.664 11.336C1.72 10.552 1.248 9.344 1.248 7.712C1.248 6.224 1.816 5 2.952 4.04C4.104 3.08 5.616 2.6 7.488 2.6C9.424 2.6 10.936 3.032 12.024 3.896C13.128 4.76 13.76 6.04 13.92 7.736H10.344C10.104 6.216 9.152 5.456 7.488 5.456C6.656 5.456 6.016 5.632 5.568 5.984C5.136 6.336 4.92 6.808 4.92 7.4C4.92 8.04 5.128 8.52 5.544 8.84C5.976 9.144 6.832 9.392 8.112 9.584C10.32 9.872 11.92 10.392 12.912 11.144C13.904 11.88 14.4 13.096 14.4 14.792C14.4 16.36 13.8 17.664 12.6 18.704C11.416 19.744 9.832 20.264 7.848 20.264ZM21.2316 20.24C19.9036 20.24 18.8956 19.904 18.2076 19.232C17.5196 18.56 17.1756 17.576 17.1756 16.28V9.92H15.5676V7.448H17.1756V4.736H20.6316V7.448H23.2716V9.92H20.6316V15.968C20.6316 16.96 21.0956 17.456 22.0236 17.456C22.5196 17.456 22.9596 17.376 23.3436 17.216V19.904C22.7036 20.128 21.9996 20.24 21.2316 20.24ZM27.4224 20.216C26.8304 20.216 26.3264 20.016 25.9104 19.616C25.4944 19.2 25.2864 18.696 25.2864 18.104C25.2864 17.528 25.4944 17.04 25.9104 16.64C26.3264 16.224 26.8304 16.016 27.4224 16.016C28.0304 16.016 28.5424 16.224 28.9584 16.64C29.3744 17.04 29.5824 17.528 29.5824 18.104C29.5824 18.696 29.3744 19.2 28.9584 19.616C28.5424 20.016 28.0304 20.216 27.4224 20.216ZM45.486 20.264C42.734 20.264 40.59 19.464 39.054 17.864C37.518 16.248 36.75 14.136 36.75 11.528V11.336C36.75 8.76 37.566 6.656 39.198 5.024C40.846 3.392 42.942 2.576 45.486 2.576C46.814 2.576 48.006 2.776 49.062 3.176C50.134 3.56 51.046 4.216 51.798 5.144C52.55 6.072 52.99 7.216 53.118 8.576H49.254C48.934 6.624 47.694 5.648 45.534 5.648C44.062 5.648 42.902 6.168 42.054 7.208C41.222 8.232 40.806 9.624 40.806 11.384V11.576C40.806 13.32 41.198 14.704 41.982 15.728C42.766 16.752 43.966 17.264 45.582 17.264C46.942 17.264 47.958 16.928 48.63 16.256C49.318 15.584 49.678 14.712 49.71 13.64H45.846V10.808H53.55V12.632C53.55 14.952 52.838 16.808 51.414 18.2C49.99 19.576 48.014 20.264 45.486 20.264ZM55.8126 20V7.448H59.2926V9.848C60.0926 8.136 61.4446 7.272 63.3486 7.256V10.496C62.0046 10.48 60.9886 10.728 60.3006 11.24C59.6286 11.736 59.2926 12.56 59.2926 13.712V20H55.8126ZM70.9425 20.264C69.0065 20.264 67.4305 19.696 66.2145 18.56C64.9985 17.408 64.3905 15.848 64.3905 13.88V13.688C64.3905 11.736 64.9985 10.16 66.2145 8.96C67.4465 7.76 68.9905 7.16 70.8465 7.16C72.6065 7.16 74.0625 7.696 75.2145 8.768C76.3825 9.84 76.9665 11.432 76.9665 13.544V14.504H67.9185C67.9665 15.544 68.2625 16.352 68.8065 16.928C69.3505 17.504 70.0945 17.792 71.0385 17.792C72.5425 17.792 73.4145 17.208 73.6545 16.04H76.9425C76.7345 17.4 76.1105 18.448 75.0705 19.184C74.0305 19.904 72.6545 20.264 70.9425 20.264ZM67.9665 12.368H73.5825C73.4705 10.496 72.5585 9.56 70.8465 9.56C70.0625 9.56 69.4145 9.808 68.9025 10.304C68.4065 10.784 68.0945 11.472 67.9665 12.368ZM84.5724 24.632C80.7964 24.632 78.7164 23.176 78.3324 20.264H81.7884C82.0284 21.48 82.9564 22.088 84.5724 22.088C86.6844 22.088 87.7404 21.064 87.7404 19.016V17.12C87.3724 17.776 86.8284 18.328 86.1084 18.776C85.3884 19.224 84.5884 19.448 83.7084 19.448C82.1404 19.448 80.8364 18.904 79.7964 17.816C78.7564 16.728 78.2364 15.272 78.2364 13.448V13.28C78.2364 11.504 78.7644 10.04 79.8204 8.888C80.8764 7.736 82.1884 7.16 83.7564 7.16C85.5964 7.16 86.9244 7.88 87.7404 9.32V7.448H91.1964V19.016C91.1804 20.856 90.5964 22.248 89.4444 23.192C88.2924 24.152 86.6684 24.632 84.5724 24.632ZM84.7404 16.832C85.6684 16.832 86.4124 16.528 86.9724 15.92C87.5484 15.296 87.8364 14.456 87.8364 13.4V13.232C87.8364 12.16 87.5644 11.32 87.0204 10.712C86.4924 10.104 85.7564 9.8 84.8124 9.8C83.8524 9.8 83.1084 10.112 82.5804 10.736C82.0524 11.36 81.7884 12.2 81.7884 13.256V13.448C81.7884 14.472 82.0604 15.296 82.6044 15.92C83.1484 16.528 83.8604 16.832 84.7404 16.832ZM97.5983 16.616C98.1423 17.288 98.9023 17.624 99.8783 17.624C100.854 17.624 101.606 17.288 102.134 16.616C102.678 15.944 102.95 15.008 102.95 13.808V13.64C102.95 12.44 102.678 11.504 102.134 10.832C101.606 10.144 100.854 9.8 99.8783 9.8C98.9183 9.8 98.1663 10.136 97.6223 10.808C97.0783 11.464 96.8063 12.392 96.8063 13.592V13.784C96.8063 14.984 97.0703 15.928 97.5983 16.616ZM99.8543 20.264C97.9503 20.264 96.3743 19.68 95.1263 18.512C93.8783 17.328 93.2543 15.776 93.2543 13.856V13.664C93.2543 11.728 93.8783 10.16 95.1263 8.96C96.3743 7.76 97.9583 7.16 99.8783 7.16C101.798 7.16 103.374 7.752 104.606 8.936C105.854 10.104 106.478 11.656 106.478 13.592V13.784C106.478 15.736 105.854 17.304 104.606 18.488C103.358 19.672 101.774 20.264 99.8543 20.264ZM108.571 20V7.448H112.051V9.848C112.851 8.136 114.203 7.272 116.107 7.256V10.496C114.763 10.48 113.747 10.728 113.059 11.24C112.387 11.736 112.051 12.56 112.051 13.712V20H108.571ZM119.853 24.272L122.061 18.728L117.069 7.448H120.813L123.861 14.984L126.669 7.448H130.005L123.213 24.272H119.853ZM131.952 9.176L131.496 2.84H134.952L134.496 9.176H131.952ZM141.614 20.264C139.918 20.264 138.598 19.904 137.654 19.184C136.71 18.464 136.206 17.424 136.142 16.064H139.382C139.462 16.656 139.67 17.104 140.006 17.408C140.342 17.696 140.87 17.84 141.59 17.84C142.902 17.84 143.558 17.384 143.558 16.472C143.558 16.056 143.366 15.736 142.982 15.512C142.598 15.288 141.942 15.112 141.014 14.984C139.318 14.728 138.118 14.312 137.414 13.736C136.726 13.16 136.382 12.272 136.382 11.072C136.382 9.824 136.862 8.864 137.822 8.192C138.798 7.504 139.974 7.16 141.35 7.16C144.518 7.16 146.246 8.456 146.534 11.048H143.342C143.15 10.04 142.494 9.536 141.374 9.536C140.814 9.536 140.374 9.656 140.054 9.896C139.75 10.136 139.598 10.448 139.598 10.832C139.598 11.232 139.766 11.528 140.102 11.72C140.454 11.912 141.094 12.072 142.022 12.2C143.718 12.44 144.95 12.84 145.718 13.4C146.502 13.96 146.894 14.872 146.894 16.136C146.894 17.48 146.43 18.504 145.502 19.208C144.59 19.912 143.294 20.264 141.614 20.264ZM9.576 50.264C6.824 50.264 4.696 49.48 3.192 47.912C1.704 46.344 0.96 44.216 0.96 41.528V41.336C0.96 38.76 1.76 36.656 3.36 35.024C4.976 33.392 7.016 32.576 9.48 32.576C11.624 32.576 13.376 33.104 14.736 34.16C16.112 35.216 16.896 36.768 17.088 38.816H13.104C12.816 36.704 11.616 35.648 9.504 35.648C8.144 35.648 7.064 36.152 6.264 37.16C5.464 38.168 5.064 39.552 5.064 41.312V41.504C5.064 43.28 5.456 44.664 6.24 45.656C7.024 46.632 8.12 47.12 9.528 47.12C10.616 47.12 11.504 46.848 12.192 46.304C12.88 45.744 13.304 44.92 13.464 43.832H17.28C17.072 45.912 16.272 47.504 14.88 48.608C13.504 49.712 11.736 50.264 9.576 50.264ZM22.8251 46.616C23.3691 47.288 24.1291 47.624 25.1051 47.624C26.0811 47.624 26.8331 47.288 27.3611 46.616C27.9051 45.944 28.1771 45.008 28.1771 43.808V43.64C28.1771 42.44 27.9051 41.504 27.3611 40.832C26.8331 40.144 26.0811 39.8 25.1051 39.8C24.1451 39.8 23.3931 40.136 22.8491 40.808C22.3051 41.464 22.0331 42.392 22.0331 43.592V43.784C22.0331 44.984 22.2971 45.928 22.8251 46.616ZM25.0811 50.264C23.1771 50.264 21.6011 49.68 20.3531 48.512C19.1051 47.328 18.4811 45.776 18.4811 43.856V43.664C18.4811 41.728 19.1051 40.16 20.3531 38.96C21.6011 37.76 23.1851 37.16 25.1051 37.16C27.0251 37.16 28.6011 37.752 29.8331 38.936C31.0811 40.104 31.7051 41.656 31.7051 43.592V43.784C31.7051 45.736 31.0811 47.304 29.8331 48.488C28.5851 49.672 27.0011 50.264 25.0811 50.264ZM33.8942 50V31.76H37.3502V50H33.8942ZM40.3807 50V31.76H43.8367V50H40.3807ZM52.5553 50.264C50.6193 50.264 49.0433 49.696 47.8273 48.56C46.6113 47.408 46.0033 45.848 46.0033 43.88V43.688C46.0033 41.736 46.6113 40.16 47.8273 38.96C49.0593 37.76 50.6033 37.16 52.4593 37.16C54.2193 37.16 55.6753 37.696 56.8273 38.768C57.9953 39.84 58.5793 41.432 58.5793 43.544V44.504H49.5313C49.5793 45.544 49.8753 46.352 50.4193 46.928C50.9633 47.504 51.7073 47.792 52.6513 47.792C54.1553 47.792 55.0273 47.208 55.2673 46.04H58.5553C58.3473 47.4 57.7233 48.448 56.6833 49.184C55.6433 49.904 54.2673 50.264 52.5553 50.264ZM49.5793 42.368H55.1953C55.0833 40.496 54.1713 39.56 52.4593 39.56C51.6753 39.56 51.0273 39.808 50.5153 40.304C50.0193 40.784 49.7073 41.472 49.5793 42.368ZM66.1853 54.632C62.4093 54.632 60.3293 53.176 59.9453 50.264H63.4013C63.6413 51.48 64.5693 52.088 66.1853 52.088C68.2973 52.088 69.3533 51.064 69.3533 49.016V47.12C68.9853 47.776 68.4413 48.328 67.7213 48.776C67.0013 49.224 66.2013 49.448 65.3213 49.448C63.7533 49.448 62.4493 48.904 61.4093 47.816C60.3693 46.728 59.8493 45.272 59.8493 43.448V43.28C59.8493 41.504 60.3773 40.04 61.4333 38.888C62.4893 37.736 63.8013 37.16 65.3693 37.16C67.2093 37.16 68.5373 37.88 69.3533 39.32V37.448H72.8093V49.016C72.7933 50.856 72.2093 52.248 71.0573 53.192C69.9053 54.152 68.2813 54.632 66.1853 54.632ZM66.3533 46.832C67.2813 46.832 68.0253 46.528 68.5853 45.92C69.1613 45.296 69.4493 44.456 69.4493 43.4V43.232C69.4493 42.16 69.1773 41.32 68.6333 40.712C68.1053 40.104 67.3693 39.8 66.4253 39.8C65.4653 39.8 64.7213 40.112 64.1933 40.736C63.6653 41.36 63.4013 42.2 63.4013 43.256V43.448C63.4013 44.472 63.6733 45.296 64.2173 45.92C64.7613 46.528 65.4733 46.832 66.3533 46.832ZM81.4191 50.264C79.4831 50.264 77.9071 49.696 76.6911 48.56C75.4751 47.408 74.8671 45.848 74.8671 43.88V43.688C74.8671 41.736 75.4751 40.16 76.6911 38.96C77.9231 37.76 79.4671 37.16 81.3231 37.16C83.0831 37.16 84.5391 37.696 85.6911 38.768C86.8591 39.84 87.4431 41.432 87.4431 43.544V44.504H78.3951C78.4431 45.544 78.7391 46.352 79.2831 46.928C79.8271 47.504 80.5711 47.792 81.5151 47.792C83.0191 47.792 83.8911 47.208 84.1311 46.04H87.4191C87.2111 47.4 86.5871 48.448 85.5471 49.184C84.5071 49.904 83.1311 50.264 81.4191 50.264ZM78.4431 42.368H84.0591C83.9471 40.496 83.0351 39.56 81.3231 39.56C80.5391 39.56 79.8911 39.808 79.3791 40.304C78.8831 40.784 78.5711 41.472 78.4431 42.368ZM90.4918 52.952L88.3798 52.064L90.4918 46.136L93.7558 47.36L90.4918 52.952ZM101.665 50V32.84H105.553V46.952H112.537V50H101.665ZM117.926 50.264C116.694 50.264 115.686 49.952 114.902 49.328C114.118 48.704 113.726 47.768 113.726 46.52C113.726 43.832 115.902 42.488 120.254 42.488H121.67V41.984C121.67 41.2 121.518 40.624 121.214 40.256C120.91 39.872 120.382 39.68 119.63 39.68C118.366 39.68 117.654 40.272 117.494 41.456H114.206C114.302 40.032 114.862 38.96 115.886 38.24C116.91 37.52 118.23 37.16 119.846 37.16C123.35 37.16 125.102 38.712 125.102 41.816V50H121.718V48.488C120.87 49.672 119.606 50.264 117.926 50.264ZM118.958 47.84C119.742 47.84 120.39 47.64 120.902 47.24C121.414 46.84 121.67 46.296 121.67 45.608V44.552H120.326C119.27 44.552 118.47 44.688 117.926 44.96C117.398 45.232 117.134 45.688 117.134 46.328C117.134 47.336 117.742 47.84 118.958 47.84ZM133.417 54.632C129.641 54.632 127.561 53.176 127.177 50.264H130.633C130.873 51.48 131.801 52.088 133.417 52.088C135.529 52.088 136.585 51.064 136.585 49.016V47.12C136.217 47.776 135.673 48.328 134.953 48.776C134.233 49.224 133.433 49.448 132.553 49.448C130.985 49.448 129.681 48.904 128.641 47.816C127.601 46.728 127.081 45.272 127.081 43.448V43.28C127.081 41.504 127.609 40.04 128.665 38.888C129.721 37.736 131.033 37.16 132.601 37.16C134.441 37.16 135.769 37.88 136.585 39.32V37.448H140.041V49.016C140.025 50.856 139.441 52.248 138.289 53.192C137.137 54.152 135.513 54.632 133.417 54.632ZM133.585 46.832C134.513 46.832 135.257 46.528 135.817 45.92C136.393 45.296 136.681 44.456 136.681 43.4V43.232C136.681 42.16 136.409 41.32 135.865 40.712C135.337 40.104 134.601 39.8 133.657 39.8C132.697 39.8 131.953 40.112 131.425 40.736C130.897 41.36 130.633 42.2 130.633 43.256V43.448C130.633 44.472 130.905 45.296 131.449 45.92C131.993 46.528 132.705 46.832 133.585 46.832ZM146.443 46.616C146.987 47.288 147.747 47.624 148.723 47.624C149.699 47.624 150.451 47.288 150.979 46.616C151.523 45.944 151.795 45.008 151.795 43.808V43.64C151.795 42.44 151.523 41.504 150.979 40.832C150.451 40.144 149.699 39.8 148.723 39.8C147.763 39.8 147.011 40.136 146.467 40.808C145.923 41.464 145.651 42.392 145.651 43.592V43.784C145.651 44.984 145.915 45.928 146.443 46.616ZM148.699 50.264C146.795 50.264 145.219 49.68 143.971 48.512C142.723 47.328 142.099 45.776 142.099 43.856V43.664C142.099 41.728 142.723 40.16 143.971 38.96C145.219 37.76 146.803 37.16 148.723 37.16C150.643 37.16 152.219 37.752 153.451 38.936C154.699 40.104 155.323 41.656 155.323 43.592V43.784C155.323 45.736 154.699 47.304 153.451 48.488C152.203 49.672 150.619 50.264 148.699 50.264ZM161.976 50.264C160.28 50.264 158.96 49.904 158.016 49.184C157.072 48.464 156.568 47.424 156.504 46.064H159.744C159.824 46.656 160.032 47.104 160.368 47.408C160.704 47.696 161.232 47.84 161.952 47.84C163.264 47.84 163.92 47.384 163.92 46.472C163.92 46.056 163.728 45.736 163.344 45.512C162.96 45.288 162.304 45.112 161.376 44.984C159.68 44.728 158.48 44.312 157.776 43.736C157.088 43.16 156.744 42.272 156.744 41.072C156.744 39.824 157.224 38.864 158.184 38.192C159.16 37.504 160.336 37.16 161.712 37.16C164.88 37.16 166.608 38.456 166.896 41.048H163.704C163.512 40.04 162.856 39.536 161.736 39.536C161.176 39.536 160.736 39.656 160.416 39.896C160.112 40.136 159.96 40.448 159.96 40.832C159.96 41.232 160.128 41.528 160.464 41.72C160.816 41.912 161.456 42.072 162.384 42.2C164.08 42.44 165.312 42.84 166.08 43.4C166.864 43.96 167.256 44.872 167.256 46.136C167.256 47.48 166.792 48.504 165.864 49.208C164.952 49.912 163.656 50.264 161.976 50.264Z" fill="#011B33"></path>
</svg>
